<svg xmlns="http://www.w3.org/2000/svg" viewBox="0 0 1600 900" role="img" aria-label="OpenSketch ARCH-Code and stability summary">
  <defs>
    <radialGradient id="bg" cx="58%" cy="46%" r="78%">
      <stop offset="0" stop-color="#18363a"/>
      <stop offset=".56" stop-color="#0b111a"/>
      <stop offset="1" stop-color="#05070d"/>
    </radialGradient>
    <marker id="arrow" markerWidth="10" markerHeight="10" refX="8" refY="3" orient="auto">
      <path d="M0,0 L8,3 L0,6 Z" fill="#ff6fb0"/>
    </marker>
  </defs>
  <rect width="1600" height="900" fill="url(#bg)"/>
  <g fill="none" stroke="#7893a5" stroke-opacity=".18">
    <circle cx="1180" cy="420" r="110"/>
    <circle cx="1180" cy="420" r="190"/>
    <circle cx="1180" cy="420" r="270"/>
    <path d="M120 205 H1480M120 705 H1480"/>
  </g>
  <text x="110" y="108" fill="#f7f2e9" font-family="Arial, Helvetica, sans-serif" font-size="58" font-weight="700">ARCH-Code Stability</text>
  <text x="112" y="158" fill="#b5c3cf" font-family="Arial, Helvetica, sans-serif" font-size="24">Turning architectural interpretation into repeatable, searchable outputs</text>
  <g font-family="Arial, Helvetica, sans-serif">
    <g transform="translate(110 260)">
      <rect width="395" height="390" rx="26" fill="#0f1723" stroke="#334b62"/>
      <text x="34" y="60" fill="#ff6fb0" font-size="22" font-weight="700">SEMANTIC ENCODING</text>
      <text x="34" y="112" fill="#f7f2e9" font-size="34" font-weight="700">ARCH-Code</text>
      <text x="34" y="166" fill="#b8c6d2" font-size="24">view type</text>
      <text x="34" y="211" fill="#b8c6d2" font-size="24">geometry</text>
      <text x="34" y="256" fill="#b8c6d2" font-size="24">style language</text>
      <text x="34" y="301" fill="#b8c6d2" font-size="24">site context</text>
      <rect x="34" y="330" width="270" height="38" rx="10" fill="#18283a" stroke="#79b8d8"/>
      <text x="54" y="356" fill="#dff5ff" font-size="18" font-weight="700">structured JSON report</text>
    </g>
    <g transform="translate(610 260)">
      <rect width="360" height="390" rx="26" fill="#0f1723" stroke="#334b62"/>
      <text x="34" y="60" fill="#ff6fb0" font-size="22" font-weight="700">REPEAT TESTS</text>
      <text x="34" y="125" fill="#f7f2e9" font-size="70" font-weight="700">100%</text>
      <text x="34" y="170" fill="#b8c6d2" font-size="24">ARCH-Code consistency</text>
      <text x="34" y="250" fill="#f7f2e9" font-size="64" font-weight="700">&gt;92%</text>
      <text x="34" y="294" fill="#b8c6d2" font-size="24">professional term overlap</text>
      <text x="34" y="352" fill="#f7f2e9" font-size="34" font-weight="700">&lt;15%</text>
      <text x="135" y="352" fill="#b8c6d2" font-size="24">baseline term overlap</text>
    </g>
    <g transform="translate(1085 260)">
      <rect width="405" height="390" rx="26" fill="#0f1723" stroke="#334b62"/>
      <text x="34" y="60" fill="#ff6fb0" font-size="22" font-weight="700">WHY IT MATTERS</text>
      <text x="34" y="112" fill="#f7f2e9" font-size="34" font-weight="700">Auditable spatial AI</text>
      <text x="34" y="168" fill="#b8c6d2" font-size="24">less hallucination</text>
      <text x="34" y="213" fill="#b8c6d2" font-size="24">disciplinary vocabulary</text>
      <text x="34" y="258" fill="#b8c6d2" font-size="24">similar-case retrieval</text>
      <text x="34" y="303" fill="#b8c6d2" font-size="24">BIM / AIGC bridge</text>
    </g>
  </g>
  <g stroke="#ff6fb0" stroke-width="4" fill="none" marker-end="url(#arrow)">
    <path d="M515 455 H600"/>
    <path d="M980 455 H1072"/>
  </g>
</svg>
